<svg width="32.296" height="32.296" xmlns="http://www.w3.org/2000/svg">

 <g>
  <title>background</title>
  <rect fill="none" id="canvas_background" height="602" width="802" y="-1" x="-1"/>
 </g>
 <g>
  <title>Layer 1</title>
  <g id="svg_1">
   <path id="svg_2" fill="#030104" d="m31.923,9.14l-18.506,18.502c-0.496,0.494 -1.299,0.494 -1.793,0l-11.254,-11.326c-0.494,-0.496 -0.494,-1.302 0,-1.795l2.689,-2.687c0.496,-0.495 1.299,-0.495 1.793,0l7.678,7.729l14.908,-14.909c0.494,-0.494 1.297,-0.494 1.795,0l2.689,2.691c0.499,0.495 0.499,1.301 0.001,1.795z"/>
  </g>
  <g id="svg_3"/>
  <g id="svg_4"/>
  <g id="svg_5"/>
  <g id="svg_6"/>
  <g id="svg_7"/>
  <g id="svg_8"/>
  <g id="svg_9"/>
  <g id="svg_10"/>
  <g id="svg_11"/>
  <g id="svg_12"/>
  <g id="svg_13"/>
  <g id="svg_14"/>
  <g id="svg_15"/>
  <g id="svg_16"/>
  <g id="svg_17"/>
  <ellipse ry="1.57264" rx="4.71792" id="svg_18" cy="26.40512" cx="8.35968" fill-opacity="null" stroke-width="75" stroke="#ffffff" fill="none"/>
  <ellipse ry="1.92212" rx="5.36695" id="svg_22" cy="25.10706" cx="15.89838" fill-opacity="null" stroke-width="75" stroke="#ffffff" fill="none"/>
  <ellipse ry="4.64304" rx="4.94259" id="svg_28" cy="25.8809" cx="12.87791" fill-opacity="null" stroke-width="75" stroke="#000000" fill="#ffffff"/>
  <path id="svg_30" d="m8.60292,26.54074l0,0c0,-2.39942 1.92335,-4.34454 4.29591,-4.34454l0,0c1.13936,0 2.23206,0.45773 3.03767,1.27249c0.80565,0.81476 1.25825,1.91982 1.25825,3.07205l0,0c0,2.39945 -1.92333,4.34456 -4.29592,4.34456l0,0c-2.37256,0 -4.29591,-1.94511 -4.29591,-4.34456l0,0zm6.93692,1.94353l0,0c0.94582,-1.31456 0.80522,-3.12966 -0.33147,-4.27921c-1.13669,-1.14956 -2.93148,-1.29174 -4.23128,-0.33521l4.56275,4.61442zm-5.282,-3.88703c-0.94582,1.31455 -0.80523,3.12966 0.33145,4.27919c1.13668,1.14956 2.93147,1.29175 4.23127,0.33522l-4.56273,-4.61441l0,0z" stroke="#000000" fill="#000000"/>
 </g>
</svg>