<?xml version="1.0"?>
<svg xmlns="http://www.w3.org/2000/svg" xmlns:xlink="http://www.w3.org/1999/xlink" xmlns:svgjs="http://svgjs.com/svgjs" version="1.1" width="512" height="512" x="0" y="0" viewBox="0 0 512 512" style="enable-background:new 0 0 512 512" xml:space="preserve"><g><g xmlns="http://www.w3.org/2000/svg"><path d="m256 452c8.284 0 15-6.716 15-15v-242c0-8.284-6.716-15-15-15s-15 6.716-15 15v242c0 8.284 6.716 15 15 15z" fill="#ffffff" data-original="#000000" style=""/><path d="m346 452c8.284 0 15-6.716 15-15v-242c0-8.284-6.716-15-15-15s-15 6.716-15 15v242c0 8.284 6.716 15 15 15z" fill="#ffffff" data-original="#000000" style=""/><path d="m166 452c8.284 0 15-6.716 15-15v-242c0-8.284-6.716-15-15-15s-15 6.716-15 15v242c0 8.284 6.716 15 15 15z" fill="#ffffff" data-original="#000000" style=""/><path d="m46 150h45v347c0 8.284 6.716 15 15 15h300c8.284 0 15-6.716 15-15v-347h45c8.284 0 15-6.716 15-15s-6.716-15-15-15h-15v-45c0-8.284-6.716-15-15-15h-105v-45c0-8.284-6.716-15-15-15h-120c-8.284 0-15 6.716-15 15v45h-105c-8.284 0-15 6.716-15 15v45h-15c-8.284 0-15 6.716-15 15s6.716 15 15 15zm345 332h-270v-332h270zm-180-452h90v30h-90zm-120 60h330v30h-330z" fill="#ffffff" data-original="#000000" style=""/></g></g></svg>
